<svg version="1.2" xmlns="http://www.w3.org/2000/svg" viewBox="0 0 2442 857" width="2442" height="857"><defs><linearGradient id="P" gradientUnits="userSpaceOnUse"/><linearGradient id="g1" x2="1" href="#P" gradientTransform="matrix(8.081,-853.903,143.082,1.354,430.36,807.83)"><stop stop-color="#9b4f8f"/><stop offset="1" stop-color="#482b78"/></linearGradient><linearGradient id="g2" x2="1" href="#P" gradientTransform="matrix(955.137,-13.592,2.279,160.153,-98.004,445.195)"><stop stop-color="#9b4f8f"/><stop offset="1" stop-color="#482b78"/></linearGradient><linearGradient id="g3" x2="1" href="#P" gradientTransform="matrix(-8.081,853.903,-143.083,-1.354,2011.72,48.885)"><stop stop-color="#9b4f8f"/><stop offset="1" stop-color="#482b78"/></linearGradient><linearGradient id="g4" x2="1" href="#P" gradientTransform="matrix(-955.137,13.592,-2.279,-160.153,2540.084,411.519)"><stop stop-color="#9b4f8f"/><stop offset="1" stop-color="#482b78"/></linearGradient><linearGradient id="g5" x2="1" href="#P" gradientTransform="matrix(140.214,-136.279,136.279,140.214,1148.042,791.968)"><stop stop-color="#9b4f8f"/><stop offset="1" stop-color="#482b78"/></linearGradient><linearGradient id="g6" x2="1" href="#P" gradientTransform="matrix(-140.214,136.279,-136.279,-140.214,1294.039,64.745)"><stop stop-color="#9b4f8f"/><stop offset="1" stop-color="#482b78"/></linearGradient></defs><style>.a{fill:url(#g1)}.b{fill:url(#g2)}.c{fill:url(#g3)}.d{fill:url(#g4)}.e{fill:url(#g5)}.f{fill:url(#g6)}.g{fill:#201835}</style><path class="a" d="m135.4 721.8l-134.9 135v-856.8h143.8z"/><path class="b" d="m0.5 138.5v-138.5l865.5 0.1-134.9 135z"/><path class="c" d="m2306.6 134.9l135-135v856.8h-143.8z"/><path class="d" d="m2441.6 718.2v138.5l-865.5-0.1 134.9-135z"/><path class="e" d="m1356.3 721.2v135.5h-135.5v-135.5z"/><path class="f" d="m1221.3 0v135.5h-135.5v-135.5z"/><path class="g" d="m369.1 433.3v-12c0-46.6 7.5-72.6 38.6-72.6h2.7c25.4 0 32.3 18.5 32.3 50.5h48.5v-10.8c0-58.3-28.1-81.6-83.5-81.6-60.7 0-87.6 33.8-87.6 114.5v12c0 80.8 26.9 114.6 87.6 114.6 55.4 0 83.5-23.3 83.5-80.8v-2.7h-48.5c0 25.2-8.6 41.6-32.3 41.6h-2.7c-31.1 0-38.6-26-38.6-72.7zm264.2 114.6c60.7 0 89.1-33.8 89.1-114.6v-12c0-80.7-28.4-114.5-89.1-114.5-60.4 0-88.9 33.8-88.9 114.5v12c0 80.8 28.5 114.6 88.9 114.6zm-1.2-41.9c-29.9 0-38.6-26-38.6-72.7v-12c0-46.6 8.7-72.6 38.6-72.6h2.7c29.9 0 38.3 26 38.3 72.6v12c0 46.7-8.4 72.7-38.3 72.7zm318.6-72.7v-12c0-80.7-29-110.6-98.4-110.6h-71.5v233.3h71.5c69.4 0 98.4-29.9 98.4-110.7zm-121.5 68.8v-149.6h20.4c40.4 0 51.7 22.2 51.7 68.8v12c0 46.7-11.3 68.8-51.7 68.8zm179.8-191.4v233.3h142.6v-41.9h-94.2v-56.2h79.3v-41.9h-79.3v-51.5h94.2v-41.8zm443.7 233.3v-41.9h-86.2v-191.4h-48.4v233.3zm138.8 3.9c60.7 0 89.1-33.8 89.1-114.6v-12c0-80.7-28.4-114.5-89.1-114.5-60.5 0-88.9 33.8-88.9 114.5v12c0 80.8 28.4 114.6 88.9 114.6zm-1.2-41.9c-29.9 0-38.6-26-38.6-72.7v-12c0-46.6 8.7-72.6 38.6-72.6h2.7c29.9 0 38.3 26 38.3 72.6v12c0 46.7-8.4 72.7-38.3 72.7zm270.1 38.6l58.3-233.9h-52l-39.8 178-39.8-178h-51.7l58.3 233.9zm118.2-233.9v233.3h142.7v-41.9h-94.3v-56.2h79.3v-41.9h-79.3v-51.5h94.3v-41.8z"/></svg>